<svg xmlns="http://www.w3.org/2000/svg" viewBox="0 0 210 40" height="40">
  <!-- Mark: scaled to 36x36, vertically centered in 40px -->
  <g transform="translate(0, 2) scale(0.06051) translate(-222.85, -214.77)">
    <g transform="translate(520.325 512.245) scale(0.82) translate(-520.325 -512.245)">
      <path fill="#F18B20" d="M463.106 358.336C474.65 358.759 487.511 358.519 499.155 358.516L561.202 358.471C576.542 410.856 592.254 463.132 608.335 515.294L620.851 556.343C621.875 559.682 625.931 573.209 627.221 575.809C641.926 627.223 659.321 680.276 675.363 731.361C664.494 731.69 652.274 731.443 641.299 731.448L577.676 731.47C563.542 685.908 549.712 640.253 536.187 594.507C529.016 570.652 518.693 533.256 508.667 510.993C495.167 471.198 484.844 428.769 472.005 388.628C468.884 378.869 466.327 367.725 463.106 358.336Z"/>
      <path fill="#F18B20" d="M222.853 358.542L321.196 358.505C345.339 431.727 367.402 505.828 391.971 579.218C392.427 582.307 399.313 602.384 400.704 606.764L429.876 697.253C431.83 703.352 438.497 727.31 441.035 731.451C409.161 730.938 375.787 731.418 343.805 731.41C334.791 704.9 326.294 677.318 317.786 650.618L280.072 533.502L242.568 419.227C236.014 399.265 228.9 378.572 222.853 358.542Z"/>
      <path fill="#205E86" d="M620.561 402.19L759.678 292.953C769.304 321.557 779.08 350.111 789.005 378.613C798.335 405.761 807.819 434.181 817.803 461.02C800.279 452.266 782.731 443.141 765.146 434.567L697.619 657.874C690.189 682.29 683.205 707.105 675.363 731.361C659.321 680.276 641.926 627.223 627.221 575.809L665.233 451.793C669.743 437.026 674.546 422.357 678.911 407.55C661.343 406.043 637.502 402.846 620.561 402.19Z"/>
      <path fill="#DD6D04" d="M391.971 579.218C402.025 550.826 411.436 522.211 420.197 493.394L444.957 415.468L456.866 377.591C458.009 373.886 461.622 361.208 463.106 358.336C466.327 367.725 468.884 378.869 472.005 388.628C484.844 428.769 495.167 471.198 508.667 510.993C494.027 559.988 479.008 608.869 463.612 657.631C458.721 673.587 453.912 689.568 449.185 705.574C447.46 711.349 443.274 726.263 441.035 731.451C438.497 727.31 431.83 703.352 429.876 697.253L400.704 606.764C399.313 602.384 392.427 582.307 391.971 579.218Z"/>
    </g>
  </g>
  <!-- Wordmark: white text for dark backgrounds -->
  <text x="44" y="30" font-family="-apple-system, BlinkMacSystemFont, 'Segoe UI', Helvetica, Arial, sans-serif" font-size="22" font-weight="600" fill="#F9FAFB">WoopSocial</text>
</svg>
